<?xml version="1.0" encoding="UTF-8"?>
<svg xmlns="http://www.w3.org/2000/svg" version="1.1" viewBox="0 0 100 100">
  <defs>
    <style>
      .st0 {
        fill: currentColor;
        stroke-width: 0px;
      }
    </style>
  </defs>
  <g>
    <rect class="st0" x="21.9" y="21.9" width="11.8" height="7.3" rx="1.5" ry="1.5"/>
    <path class="st0" d="M0,6.2v87.6c0,3.4,2.8,6.2,6.2,6.2h87.6c3.4,0,6.2-2.8,6.2-6.2V6.2c0-3.4-2.8-6.2-6.2-6.2H6.2C2.8,0,0,2.8,0,6.2ZM90.3,92.7H11.1c-2.1,0-3.8-1.7-3.8-3.8V11.1c0-2.1,1.7-3.8,3.8-3.8h77.8c2.1,0,3.8,1.7,3.8,3.8v79.2c0,1.3-1.1,2.4-2.4,2.4Z"/>
  </g>
</svg>
