<svg width="20" height="20" viewBox="0 0 20 20" xmlns="http://www.w3.org/2000/svg" fill="currentColor"><path d="M 5.703125 1.699219 C 3.507812 1.929688 1.667969 3.464844 1.050781 5.582031 C 0.890625 6.136719 0.851562 6.433594 0.851562 7.101562 C 0.855469 7.609375 0.867188 7.777344 0.929688 8.066406 C 1.164062 9.171875 1.621094 10.050781 2.515625 11.132812 C 2.882812 11.574219 9.414062 18.117188 9.601562 18.226562 C 9.726562 18.304688 9.789062 18.316406 10 18.316406 C 10.210938 18.316406 10.273438 18.304688 10.398438 18.226562 C 10.578125 18.121094 16.992188 11.703125 17.386719 11.234375 C 18.355469 10.089844 18.828125 9.199219 19.070312 8.058594 C 19.167969 7.613281 19.179688 6.648438 19.089844 6.183594 C 18.714844 4.152344 17.351562 2.578125 15.417969 1.9375 C 14.582031 1.660156 13.585938 1.601562 12.601562 1.769531 C 11.753906 1.914062 10.972656 2.273438 10.207031 2.871094 L 10 3.035156 L 9.792969 2.871094 C 9.023438 2.269531 8.246094 1.914062 7.378906 1.765625 C 6.925781 1.6875 6.121094 1.65625 5.703125 1.699219 M 6.773438 3.367188 C 7.332031 3.425781 7.808594 3.570312 8.203125 3.800781 C 8.429688 3.9375 8.765625 4.171875 8.765625 4.195312 C 8.765625 4.207031 8.3125 4.671875 7.753906 5.234375 C 7.113281 5.875 6.691406 6.328125 6.605469 6.460938 C 6.296875 6.929688 6.148438 7.488281 6.175781 8.046875 C 6.203125 8.464844 6.261719 8.699219 6.449219 9.082031 C 6.777344 9.765625 7.386719 10.269531 8.117188 10.472656 C 8.332031 10.535156 8.464844 10.546875 8.816406 10.546875 C 9.3125 10.546875 9.605469 10.484375 9.996094 10.285156 C 10.300781 10.132812 10.453125 10.007812 11.382812 9.152344 C 12.339844 8.269531 12.464844 8.164062 12.6875 8.054688 C 13.167969 7.816406 13.816406 7.878906 14.242188 8.207031 C 14.441406 8.359375 16.234375 9.972656 16.234375 10 C 16.234375 10.035156 15.609375 10.714844 15.289062 11.03125 L 15 11.3125 L 14.390625 10.710938 C 13.878906 10.207031 13.757812 10.101562 13.621094 10.054688 C 13.234375 9.914062 12.808594 10.074219 12.605469 10.429688 C 12.53125 10.558594 12.515625 10.621094 12.515625 10.832031 C 12.515625 11.011719 12.535156 11.117188 12.578125 11.199219 C 12.613281 11.265625 12.90625 11.582031 13.226562 11.910156 L 13.816406 12.5 L 12.503906 13.8125 L 11.894531 13.210938 C 11.378906 12.707031 11.257812 12.601562 11.121094 12.554688 C 10.734375 12.414062 10.308594 12.574219 10.105469 12.929688 C 10.03125 13.058594 10.015625 13.121094 10.015625 13.332031 C 10.015625 13.511719 10.035156 13.617188 10.078125 13.699219 C 10.113281 13.765625 10.40625 14.082031 10.726562 14.410156 L 11.316406 15 L 10 16.316406 L 7.066406 13.382812 C 5.453125 11.769531 4.003906 10.300781 3.847656 10.117188 C 3.238281 9.398438 2.828125 8.703125 2.648438 8.082031 C 2.15625 6.363281 2.996094 4.5 4.613281 3.714844 C 5.28125 3.390625 5.949219 3.285156 6.773438 3.367188 M 14.214844 3.371094 C 15.699219 3.5625 16.929688 4.613281 17.347656 6.046875 C 17.46875 6.464844 17.523438 7.046875 17.472656 7.441406 C 17.429688 7.792969 17.332031 8.183594 17.234375 8.417969 L 17.164062 8.578125 L 17.074219 8.492188 C 16.515625 7.984375 15.949219 7.480469 15.382812 6.984375 C 14.257812 6.035156 12.628906 5.984375 11.449219 6.863281 C 11.339844 6.945312 10.839844 7.386719 10.339844 7.847656 C 9.296875 8.808594 9.1875 8.882812 8.820312 8.882812 C 8.421875 8.878906 8.121094 8.699219 7.941406 8.351562 C 7.867188 8.210938 7.851562 8.140625 7.851562 7.917969 C 7.851562 7.691406 7.867188 7.621094 7.941406 7.484375 C 8.003906 7.363281 8.433594 6.914062 9.523438 5.828125 C 10.984375 4.375 11.296875 4.09375 11.777344 3.8125 C 12.429688 3.429688 13.347656 3.261719 14.214844 3.371094 "/></svg>
